<mxfile host="Electron" modified="2024-03-11T09:16:06.127Z" agent="Mozilla/5.0 (Windows NT 10.0; Win64; x64) AppleWebKit/537.36 (KHTML, like Gecko) draw.io/21.7.5 Chrome/114.0.5735.289 Electron/25.8.1 Safari/537.36" etag="4e-18iFACzRa8gGhgVRl" version="21.7.5" type="device">
  <diagram name="Страница — 1" id="pMReMZTmIOwREbI7byC9">
    <mxGraphModel dx="3806" dy="1794" grid="1" gridSize="10" guides="1" tooltips="1" connect="1" arrows="1" fold="1" page="1" pageScale="1" pageWidth="827" pageHeight="1169" math="0" shadow="0">
      <root>
        <mxCell id="0" />
        <mxCell id="1" parent="0" />
        <mxCell id="h1aHCMhngj37kdhYYDJE-3" style="edgeStyle=orthogonalEdgeStyle;rounded=0;orthogonalLoop=1;jettySize=auto;html=1;exitX=1;exitY=0.5;exitDx=0;exitDy=0;entryX=0;entryY=0.5;entryDx=0;entryDy=0;entryPerimeter=0;endArrow=none;endFill=0;dashed=1;" parent="1" source="h1aHCMhngj37kdhYYDJE-1" target="h1aHCMhngj37kdhYYDJE-2" edge="1">
          <mxGeometry relative="1" as="geometry" />
        </mxCell>
        <mxCell id="h1aHCMhngj37kdhYYDJE-5" style="edgeStyle=orthogonalEdgeStyle;rounded=0;orthogonalLoop=1;jettySize=auto;html=1;exitX=0.5;exitY=1;exitDx=0;exitDy=0;entryX=0.5;entryY=0;entryDx=0;entryDy=0;endArrow=none;endFill=0;" parent="1" source="h1aHCMhngj37kdhYYDJE-1" target="h1aHCMhngj37kdhYYDJE-4" edge="1">
          <mxGeometry relative="1" as="geometry" />
        </mxCell>
        <mxCell id="h1aHCMhngj37kdhYYDJE-1" value="Начало" style="rounded=1;whiteSpace=wrap;html=1;arcSize=50;" parent="1" vertex="1">
          <mxGeometry x="350" y="100" width="120" height="30" as="geometry" />
        </mxCell>
        <mxCell id="h1aHCMhngj37kdhYYDJE-2" value="str(str, k)" style="strokeWidth=1;html=1;shape=mxgraph.flowchart.annotation_2;align=left;labelPosition=right;pointerEvents=1;fontFamily=Helvetica;fontSize=11;fontColor=default;" parent="1" vertex="1">
          <mxGeometry x="520" y="84.99999999999989" width="50" height="60" as="geometry" />
        </mxCell>
        <mxCell id="h1aHCMhngj37kdhYYDJE-7" style="edgeStyle=orthogonalEdgeStyle;shape=connector;rounded=0;orthogonalLoop=1;jettySize=auto;html=1;exitX=0.5;exitY=1;exitDx=0;exitDy=0;entryX=0.5;entryY=0;entryDx=0;entryDy=0;labelBackgroundColor=default;strokeColor=default;fontFamily=Helvetica;fontSize=11;fontColor=default;endArrow=none;endFill=0;" parent="1" source="h1aHCMhngj37kdhYYDJE-4" target="h1aHCMhngj37kdhYYDJE-6" edge="1">
          <mxGeometry relative="1" as="geometry" />
        </mxCell>
        <mxCell id="h1aHCMhngj37kdhYYDJE-4" value="ptr := str" style="rounded=0;whiteSpace=wrap;html=1;" parent="1" vertex="1">
          <mxGeometry x="350" y="160" width="120" height="60" as="geometry" />
        </mxCell>
        <mxCell id="h1aHCMhngj37kdhYYDJE-12" style="edgeStyle=orthogonalEdgeStyle;shape=connector;rounded=0;orthogonalLoop=1;jettySize=auto;html=1;exitX=0.5;exitY=1;exitDx=0;exitDy=0;entryX=0.5;entryY=0;entryDx=0;entryDy=0;labelBackgroundColor=default;strokeColor=default;fontFamily=Helvetica;fontSize=11;fontColor=default;endArrow=none;endFill=0;" parent="1" source="h1aHCMhngj37kdhYYDJE-6" target="h1aHCMhngj37kdhYYDJE-8" edge="1">
          <mxGeometry relative="1" as="geometry" />
        </mxCell>
        <mxCell id="h1aHCMhngj37kdhYYDJE-33" style="edgeStyle=orthogonalEdgeStyle;shape=connector;rounded=0;orthogonalLoop=1;jettySize=auto;html=1;exitX=1;exitY=0.5;exitDx=0;exitDy=0;entryX=0.5;entryY=0;entryDx=0;entryDy=0;labelBackgroundColor=default;strokeColor=default;fontFamily=Helvetica;fontSize=11;fontColor=default;endArrow=classic;endFill=1;" parent="1" source="h1aHCMhngj37kdhYYDJE-6" target="h1aHCMhngj37kdhYYDJE-32" edge="1">
          <mxGeometry relative="1" as="geometry">
            <Array as="points">
              <mxPoint x="620" y="280" />
              <mxPoint x="620" y="730" />
              <mxPoint x="410" y="730" />
            </Array>
          </mxGeometry>
        </mxCell>
        <mxCell id="h1aHCMhngj37kdhYYDJE-6" value="*ptr&amp;nbsp;≠ 0" style="rhombus;whiteSpace=wrap;html=1;fontFamily=Helvetica;fontSize=11;fontColor=default;" parent="1" vertex="1">
          <mxGeometry x="353" y="250" width="120" height="60" as="geometry" />
        </mxCell>
        <mxCell id="h1aHCMhngj37kdhYYDJE-10" style="edgeStyle=orthogonalEdgeStyle;shape=connector;rounded=0;orthogonalLoop=1;jettySize=auto;html=1;exitX=1;exitY=0.5;exitDx=0;exitDy=0;entryX=0;entryY=0.5;entryDx=0;entryDy=0;entryPerimeter=0;labelBackgroundColor=default;strokeColor=default;fontFamily=Helvetica;fontSize=11;fontColor=default;endArrow=none;endFill=0;dashed=1;" parent="1" source="h1aHCMhngj37kdhYYDJE-8" target="h1aHCMhngj37kdhYYDJE-9" edge="1">
          <mxGeometry relative="1" as="geometry">
            <Array as="points">
              <mxPoint x="473" y="330" />
            </Array>
          </mxGeometry>
        </mxCell>
        <mxCell id="h1aHCMhngj37kdhYYDJE-13" style="edgeStyle=orthogonalEdgeStyle;shape=connector;rounded=0;orthogonalLoop=1;jettySize=auto;html=1;exitX=0.5;exitY=1;exitDx=0;exitDy=0;entryX=0.5;entryY=0;entryDx=0;entryDy=0;labelBackgroundColor=default;strokeColor=default;fontFamily=Helvetica;fontSize=11;fontColor=default;endArrow=none;endFill=0;" parent="1" source="h1aHCMhngj37kdhYYDJE-8" target="h1aHCMhngj37kdhYYDJE-11" edge="1">
          <mxGeometry relative="1" as="geometry" />
        </mxCell>
        <mxCell id="h1aHCMhngj37kdhYYDJE-24" style="edgeStyle=orthogonalEdgeStyle;shape=connector;rounded=0;orthogonalLoop=1;jettySize=auto;html=1;exitX=1;exitY=0.5;exitDx=0;exitDy=0;labelBackgroundColor=default;strokeColor=default;fontFamily=Helvetica;fontSize=11;fontColor=default;endArrow=classic;endFill=1;" parent="1" source="h1aHCMhngj37kdhYYDJE-8" edge="1">
          <mxGeometry relative="1" as="geometry">
            <mxPoint x="410" y="630" as="targetPoint" />
            <Array as="points">
              <mxPoint x="600" y="370" />
              <mxPoint x="600" y="630" />
            </Array>
          </mxGeometry>
        </mxCell>
        <mxCell id="h1aHCMhngj37kdhYYDJE-8" value="?" style="rhombus;whiteSpace=wrap;html=1;fontFamily=Helvetica;fontSize=11;fontColor=default;" parent="1" vertex="1">
          <mxGeometry x="353" y="340" width="120" height="60" as="geometry" />
        </mxCell>
        <mxCell id="h1aHCMhngj37kdhYYDJE-9" value="((*ptr&amp;nbsp;&amp;nbsp;⩾ &#39;A&#39; and *ptr&amp;nbsp;⩽ &#39;Z&#39;) or&lt;br&gt;(*ptr ⩾ &#39;a&#39; and *ptr&amp;nbsp; &amp;nbsp;&#39;z&#39;))" style="strokeWidth=1;html=1;shape=mxgraph.flowchart.annotation_2;align=left;labelPosition=right;pointerEvents=1;fontFamily=Helvetica;fontSize=11;fontColor=default;" parent="1" vertex="1">
          <mxGeometry x="660" y="299.9999999999999" width="50" height="60" as="geometry" />
        </mxCell>
        <mxCell id="h1aHCMhngj37kdhYYDJE-15" style="edgeStyle=orthogonalEdgeStyle;shape=connector;rounded=0;orthogonalLoop=1;jettySize=auto;html=1;exitX=0;exitY=0.5;exitDx=0;exitDy=0;entryX=0.5;entryY=0;entryDx=0;entryDy=0;labelBackgroundColor=default;strokeColor=default;fontFamily=Helvetica;fontSize=11;fontColor=default;endArrow=none;endFill=0;" parent="1" source="h1aHCMhngj37kdhYYDJE-11" target="h1aHCMhngj37kdhYYDJE-14" edge="1">
          <mxGeometry relative="1" as="geometry" />
        </mxCell>
        <mxCell id="h1aHCMhngj37kdhYYDJE-17" style="edgeStyle=orthogonalEdgeStyle;shape=connector;rounded=0;orthogonalLoop=1;jettySize=auto;html=1;exitX=1;exitY=0.5;exitDx=0;exitDy=0;entryX=0.5;entryY=0;entryDx=0;entryDy=0;labelBackgroundColor=default;strokeColor=default;fontFamily=Helvetica;fontSize=11;fontColor=default;endArrow=none;endFill=0;" parent="1" source="h1aHCMhngj37kdhYYDJE-11" target="h1aHCMhngj37kdhYYDJE-16" edge="1">
          <mxGeometry relative="1" as="geometry" />
        </mxCell>
        <mxCell id="h1aHCMhngj37kdhYYDJE-11" value="*ptr&amp;nbsp;⩾ &#39;A&#39; &lt;br&gt;&amp;nbsp;and *ptr&amp;nbsp;⩽ &#39;Z&#39;" style="rhombus;whiteSpace=wrap;html=1;fontFamily=Helvetica;fontSize=11;fontColor=default;" parent="1" vertex="1">
          <mxGeometry x="354" y="430" width="120" height="60" as="geometry" />
        </mxCell>
        <mxCell id="h1aHCMhngj37kdhYYDJE-20" style="edgeStyle=orthogonalEdgeStyle;shape=connector;rounded=0;orthogonalLoop=1;jettySize=auto;html=1;exitX=0.5;exitY=1;exitDx=0;exitDy=0;labelBackgroundColor=default;strokeColor=default;fontFamily=Helvetica;fontSize=11;fontColor=default;endArrow=none;endFill=0;" parent="1" source="h1aHCMhngj37kdhYYDJE-14" edge="1">
          <mxGeometry relative="1" as="geometry">
            <mxPoint x="410" y="640" as="targetPoint" />
          </mxGeometry>
        </mxCell>
        <mxCell id="h1aHCMhngj37kdhYYDJE-14" value="*ptr :=&amp;nbsp; ((*ptr - &#39;A&#39; + k) mod 26) + &#39;A&#39;" style="rounded=0;whiteSpace=wrap;html=1;fontFamily=Helvetica;fontSize=11;fontColor=default;" parent="1" vertex="1">
          <mxGeometry x="250" y="525" width="120" height="60" as="geometry" />
        </mxCell>
        <mxCell id="h1aHCMhngj37kdhYYDJE-21" style="edgeStyle=orthogonalEdgeStyle;shape=connector;rounded=0;orthogonalLoop=1;jettySize=auto;html=1;exitX=0.5;exitY=1;exitDx=0;exitDy=0;labelBackgroundColor=default;strokeColor=default;fontFamily=Helvetica;fontSize=11;fontColor=default;endArrow=none;endFill=0;" parent="1" source="h1aHCMhngj37kdhYYDJE-16" edge="1">
          <mxGeometry relative="1" as="geometry">
            <mxPoint x="410" y="640" as="targetPoint" />
          </mxGeometry>
        </mxCell>
        <mxCell id="h1aHCMhngj37kdhYYDJE-16" value="*ptr := ((*ptr - &#39;a&#39; + k) mod 26) + &#39;a&#39;;" style="rounded=0;whiteSpace=wrap;html=1;fontFamily=Helvetica;fontSize=11;fontColor=default;" parent="1" vertex="1">
          <mxGeometry x="460" y="525" width="120" height="60" as="geometry" />
        </mxCell>
        <mxCell id="h1aHCMhngj37kdhYYDJE-18" value="Да" style="text;html=1;strokeColor=none;fillColor=none;align=center;verticalAlign=middle;whiteSpace=wrap;rounded=0;fontSize=11;fontFamily=Helvetica;fontColor=default;" parent="1" vertex="1">
          <mxGeometry x="310" y="430" width="60" height="30" as="geometry" />
        </mxCell>
        <mxCell id="h1aHCMhngj37kdhYYDJE-19" value="Нет" style="text;html=1;strokeColor=none;fillColor=none;align=center;verticalAlign=middle;whiteSpace=wrap;rounded=0;fontSize=11;fontFamily=Helvetica;fontColor=default;" parent="1" vertex="1">
          <mxGeometry x="460" y="430" width="60" height="30" as="geometry" />
        </mxCell>
        <mxCell id="h1aHCMhngj37kdhYYDJE-22" value="" style="rhombus;whiteSpace=wrap;html=1;fontFamily=Helvetica;fontSize=11;fontColor=default;" parent="1" vertex="1">
          <mxGeometry x="405" y="607" width="10" height="10" as="geometry" />
        </mxCell>
        <mxCell id="h1aHCMhngj37kdhYYDJE-30" style="edgeStyle=orthogonalEdgeStyle;shape=connector;rounded=0;orthogonalLoop=1;jettySize=auto;html=1;exitX=0.5;exitY=1;exitDx=0;exitDy=0;labelBackgroundColor=default;strokeColor=default;fontFamily=Helvetica;fontSize=11;fontColor=default;endArrow=classic;endFill=1;" parent="1" source="h1aHCMhngj37kdhYYDJE-26" edge="1">
          <mxGeometry relative="1" as="geometry">
            <mxPoint x="413" y="230" as="targetPoint" />
            <Array as="points">
              <mxPoint x="410" y="720" />
              <mxPoint x="210" y="720" />
              <mxPoint x="210" y="230" />
            </Array>
          </mxGeometry>
        </mxCell>
        <mxCell id="h1aHCMhngj37kdhYYDJE-26" value="ptr := ptr + 1" style="rounded=0;whiteSpace=wrap;html=1;fontFamily=Helvetica;fontSize=11;fontColor=default;" parent="1" vertex="1">
          <mxGeometry x="350" y="640" width="120" height="60" as="geometry" />
        </mxCell>
        <mxCell id="h1aHCMhngj37kdhYYDJE-27" value="Нет" style="text;html=1;strokeColor=none;fillColor=none;align=center;verticalAlign=middle;whiteSpace=wrap;rounded=0;fontSize=11;fontFamily=Helvetica;fontColor=default;" parent="1" vertex="1">
          <mxGeometry x="470" y="350" width="60" height="30" as="geometry" />
        </mxCell>
        <mxCell id="h1aHCMhngj37kdhYYDJE-28" value="Да" style="text;html=1;strokeColor=none;fillColor=none;align=center;verticalAlign=middle;whiteSpace=wrap;rounded=0;fontSize=11;fontFamily=Helvetica;fontColor=default;" parent="1" vertex="1">
          <mxGeometry x="396" y="401" width="60" height="30" as="geometry" />
        </mxCell>
        <mxCell id="h1aHCMhngj37kdhYYDJE-29" value="Да" style="text;html=1;strokeColor=none;fillColor=none;align=center;verticalAlign=middle;whiteSpace=wrap;rounded=0;fontSize=11;fontFamily=Helvetica;fontColor=default;" parent="1" vertex="1">
          <mxGeometry x="396" y="310" width="60" height="30" as="geometry" />
        </mxCell>
        <mxCell id="h1aHCMhngj37kdhYYDJE-36" style="edgeStyle=orthogonalEdgeStyle;shape=connector;rounded=0;orthogonalLoop=1;jettySize=auto;html=1;exitX=0.5;exitY=1;exitDx=0;exitDy=0;entryX=0.5;entryY=0;entryDx=0;entryDy=0;labelBackgroundColor=default;strokeColor=default;fontFamily=Helvetica;fontSize=11;fontColor=default;endArrow=none;endFill=0;" parent="1" source="h1aHCMhngj37kdhYYDJE-32" target="h1aHCMhngj37kdhYYDJE-35" edge="1">
          <mxGeometry relative="1" as="geometry" />
        </mxCell>
        <mxCell id="h1aHCMhngj37kdhYYDJE-32" value="str" style="shape=parallelogram;perimeter=parallelogramPerimeter;whiteSpace=wrap;html=1;fixedSize=1;fontFamily=Helvetica;fontSize=11;fontColor=default;" parent="1" vertex="1">
          <mxGeometry x="350" y="760" width="120" height="60" as="geometry" />
        </mxCell>
        <mxCell id="h1aHCMhngj37kdhYYDJE-35" value="Конец" style="rounded=1;whiteSpace=wrap;html=1;arcSize=50;fontFamily=Helvetica;fontSize=11;fontColor=default;" parent="1" vertex="1">
          <mxGeometry x="350" y="850" width="120" height="30" as="geometry" />
        </mxCell>
        <mxCell id="h1aHCMhngj37kdhYYDJE-40" style="edgeStyle=orthogonalEdgeStyle;shape=connector;rounded=0;orthogonalLoop=1;jettySize=auto;html=1;exitX=0.5;exitY=1;exitDx=0;exitDy=0;entryX=0.5;entryY=0;entryDx=0;entryDy=0;labelBackgroundColor=default;strokeColor=default;fontFamily=Helvetica;fontSize=11;fontColor=default;endArrow=none;endFill=0;" parent="1" source="h1aHCMhngj37kdhYYDJE-38" edge="1">
          <mxGeometry relative="1" as="geometry">
            <mxPoint x="1230" y="160" as="targetPoint" />
          </mxGeometry>
        </mxCell>
        <mxCell id="h1aHCMhngj37kdhYYDJE-38" value="Начало" style="rounded=1;whiteSpace=wrap;html=1;arcSize=50;fontFamily=Helvetica;fontSize=11;fontColor=default;" parent="1" vertex="1">
          <mxGeometry x="1170" y="100" width="120" height="30" as="geometry" />
        </mxCell>
        <mxCell id="h1aHCMhngj37kdhYYDJE-45" style="edgeStyle=orthogonalEdgeStyle;shape=connector;rounded=0;orthogonalLoop=1;jettySize=auto;html=1;exitX=0.5;exitY=1;exitDx=0;exitDy=0;entryX=0.5;entryY=0;entryDx=0;entryDy=0;labelBackgroundColor=default;strokeColor=default;fontFamily=Helvetica;fontSize=11;fontColor=default;endArrow=none;endFill=0;" parent="1" source="h1aHCMhngj37kdhYYDJE-41" target="h1aHCMhngj37kdhYYDJE-44" edge="1">
          <mxGeometry relative="1" as="geometry" />
        </mxCell>
        <mxCell id="h1aHCMhngj37kdhYYDJE-41" value="input, k" style="shape=parallelogram;perimeter=parallelogramPerimeter;whiteSpace=wrap;html=1;fixedSize=1;fontFamily=Helvetica;fontSize=11;fontColor=default;" parent="1" vertex="1">
          <mxGeometry x="1170" y="160" width="120" height="60" as="geometry" />
        </mxCell>
        <mxCell id="h1aHCMhngj37kdhYYDJE-47" style="edgeStyle=orthogonalEdgeStyle;shape=connector;rounded=0;orthogonalLoop=1;jettySize=auto;html=1;exitX=0.5;exitY=1;exitDx=0;exitDy=0;entryX=0.5;entryY=0;entryDx=0;entryDy=0;labelBackgroundColor=default;strokeColor=default;fontFamily=Helvetica;fontSize=11;fontColor=default;endArrow=none;endFill=0;" parent="1" source="h1aHCMhngj37kdhYYDJE-44" target="h1aHCMhngj37kdhYYDJE-46" edge="1">
          <mxGeometry relative="1" as="geometry" />
        </mxCell>
        <mxCell id="h1aHCMhngj37kdhYYDJE-44" value="res := str(input, k)" style="shape=process;whiteSpace=wrap;html=1;backgroundOutline=1;fontFamily=Helvetica;fontSize=11;fontColor=default;" parent="1" vertex="1">
          <mxGeometry x="1170" y="250" width="120" height="60" as="geometry" />
        </mxCell>
        <mxCell id="h1aHCMhngj37kdhYYDJE-49" style="edgeStyle=orthogonalEdgeStyle;shape=connector;rounded=0;orthogonalLoop=1;jettySize=auto;html=1;exitX=0.5;exitY=1;exitDx=0;exitDy=0;entryX=0.5;entryY=0;entryDx=0;entryDy=0;labelBackgroundColor=default;strokeColor=default;fontFamily=Helvetica;fontSize=11;fontColor=default;endArrow=none;endFill=0;" parent="1" source="h1aHCMhngj37kdhYYDJE-46" target="h1aHCMhngj37kdhYYDJE-48" edge="1">
          <mxGeometry relative="1" as="geometry" />
        </mxCell>
        <mxCell id="h1aHCMhngj37kdhYYDJE-46" value="res" style="shape=parallelogram;perimeter=parallelogramPerimeter;whiteSpace=wrap;html=1;fixedSize=1;fontFamily=Helvetica;fontSize=11;fontColor=default;" parent="1" vertex="1">
          <mxGeometry x="1170" y="340" width="120" height="60" as="geometry" />
        </mxCell>
        <mxCell id="h1aHCMhngj37kdhYYDJE-48" value="Конец" style="rounded=1;whiteSpace=wrap;html=1;arcSize=50;fontFamily=Helvetica;fontSize=11;fontColor=default;" parent="1" vertex="1">
          <mxGeometry x="1170" y="430" width="120" height="30" as="geometry" />
        </mxCell>
      </root>
    </mxGraphModel>
  </diagram>
</mxfile>
